<svg xmlns="http://www.w3.org/2000/svg" viewBox="0 0 46 46"><path fill="#4c1919" d="M34 11c1.512-1.395 2.259-3.006 2.259-4.585C36.26 2.872 33.544 0 30 0c-2.548 0-5.354 3.415-7 6-1.646-2.585-4.452-6-7-6-3.544 0-6.26 2.872-6.26 6.415 0 1.579.748 3.19 2.26 4.585l-11 .007v12.998h4V46h36V24.005h4V11.007L34 11zM21 42l-12 .001V24.005L21 24v18zm0-22l-16 .005v-4.999L21 15v5zM13.742 6.34A2.42 2.42 0 0 1 16.082 4c1.134.342 3.702 3.538 4.629 5.777.092.234.295.678.289 1.223-2.929 0-6.953-3.649-7.258-4.66zm11.546 3.439c.928-2.241 3.496-5.436 4.63-5.779a2.419 2.419 0 0 1 2.34 2.34C31.957 7.34 27.982 11 25 11c-.006-.545.197-.988.288-1.221zM37 42.001L25 42V24l12 .005v17.996zm4-21.996L25 20v-5l16 .006v4.999z"/></svg>